<svg xmlns="http://www.w3.org/2000/svg" viewBox="0 0 64 64" width="64" height="64">
  <!-- Plate -->
  <ellipse cx="32" cy="52" rx="28" ry="4" fill="#e0d6c8"/>
  <ellipse cx="32" cy="51" rx="28" ry="3.2" fill="#f3ead9"/>
  <!-- Caramel sauce dripping -->
  <path d="M10 36
           C 10 36, 12 50, 16 50
           L 48 50
           C 52 50, 54 36, 54 36
           C 54 36, 42 40, 32 40
           C 22 40, 10 36, 10 36 Z"
        fill="#8a4a1a"/>
  <!-- Flan body -->
  <path d="M10 36
           C 10 22, 18 14, 32 14
           C 46 14, 54 22, 54 36
           C 54 36, 42 39, 32 39
           C 22 39, 10 36, 10 36 Z"
        fill="#f7d27a"/>
  <!-- Top highlight ring -->
  <ellipse cx="32" cy="14" rx="22" ry="5" fill="#e8a946"/>
  <ellipse cx="32" cy="13" rx="20.5" ry="4" fill="#f7d27a"/>
  <!-- Glossy highlight on flan -->
  <path d="M18 22
           C 16 18, 20 14, 26 13"
        fill="none" stroke="#fff" stroke-width="2.2" stroke-linecap="round" opacity="0.7"/>
  <!-- Caramel drips -->
  <ellipse cx="14" cy="40" rx="2" ry="3" fill="#6e3a13"/>
  <ellipse cx="50" cy="41" rx="2" ry="3" fill="#6e3a13"/>
</svg>
